<svg width="132" height="215" viewBox="0 0 132 215" fill="none" xmlns="http://www.w3.org/2000/svg">
<path d="M132 59.9469L131.59 60.4894C127.401 65.8836 122.091 70.2188 116.162 73.375C113.642 74.7158 111.007 75.8374 108.31 76.7399C107.983 76.8547 107.645 76.9538 107.307 77.0686C105.603 77.6007 103.867 78.0441 102.111 78.4093C96.7692 79.4944 91.2352 79.7709 85.7843 79.1397C83.4876 78.8736 81.222 78.4823 78.972 77.992C78.9512 77.992 78.9304 77.9815 78.9096 77.9815C78.5823 77.8876 78.2549 77.7885 77.9276 77.6842C77.9068 77.6737 77.886 77.6737 77.8652 77.6633C75.4853 77.1103 73.1158 76.4321 70.7567 75.7278C70.5852 75.6861 70.4293 75.6444 70.2579 75.587C61.2735 72.8586 52.4398 69.4989 43.0761 68.4295C39.8388 68.0591 36.5392 68.0069 33.3227 68.3877C33.3019 68.3982 33.2915 68.3982 33.2811 68.3982C31.4001 68.3982 29.1813 69.0138 27.4249 69.6711C21.8961 71.7317 16.9025 76.0043 13.1767 80.5169C12.0543 81.8785 11.0099 83.3236 10.0434 84.8521C9.23797 86.3493 8.53127 87.9092 7.9389 89.5055C4.22356 99.4384 3.66236 111.27 6.60345 121.563C6.60345 121.574 6.60345 121.594 6.61385 121.605C6.85807 122.273 7.12308 122.935 7.39848 123.592C7.40888 123.634 7.41927 123.665 7.44005 123.697C12.9221 136.807 23.3303 147.799 37.3083 153.673C37.911 153.928 38.5138 154.163 39.127 154.393C63.0818 163.475 89.3749 154.904 103.784 135.122C103.795 135.111 103.805 135.101 103.805 135.09C105.437 132.858 106.918 130.479 108.206 127.964C108.102 128.272 107.983 128.59 107.868 128.908C97.1278 157.439 65.6539 172.005 37.1472 161.879L36.9445 161.816C36.6379 161.702 36.3521 161.582 36.0456 161.467C8.30264 150.939 -6.18978 120.582 2.52438 92.5261L2.55555 92.4113C2.88292 91.4045 3.22068 90.382 3.6052 89.3751C4.42102 87.231 5.35115 85.1495 6.39041 83.1618C9.72122 76.766 14.1588 71.2518 19.3603 66.7496C19.7292 66.4314 20.1138 66.1132 20.4931 65.8054C20.862 65.4976 21.257 65.1898 21.6363 64.8924C22.026 64.5846 22.4209 64.2977 22.8106 64.0108C23.2004 63.7134 23.6057 63.4369 24.0058 63.15C24.4059 62.8735 24.8112 62.597 25.2217 62.331C25.6218 62.0649 26.0375 61.7989 26.4584 61.5432C26.8793 61.2772 27.3054 60.9902 27.7471 60.7555C27.9809 60.6511 28.2148 60.552 28.433 60.4477C28.6668 60.3434 28.8851 60.2234 29.1085 60.0982C29.4983 59.8947 29.8828 59.7069 30.2621 59.5034C30.4128 59.42 30.5687 59.3313 30.7194 59.2582C31.9769 58.5905 32.7303 58.194 33.7852 57.7297C33.9203 57.6671 34.0502 57.6149 34.1957 57.5471C38.7996 55.3926 43.5698 53.8379 48.4075 52.7685C60.5668 50.1757 73.2613 50.7078 85.618 53.1284C83.3109 51.8451 80.8686 50.7183 78.3381 49.7479C69.8941 46.5396 61.1436 45.5327 52.7568 46.4248C52.736 46.4352 52.7256 46.4352 52.7256 46.4352C50.4912 46.67 48.3036 47.0508 46.1211 47.5621C45.2638 47.7551 44.4064 47.9638 43.5386 48.2194C41.1587 48.8871 38.8204 49.7271 36.5548 50.7026C36.8198 50.4783 37.064 50.2644 37.329 50.0453C39.7713 48.0159 42.385 46.2318 45.1598 44.7345C53.4115 40.1907 62.9467 38.01 72.6273 38.756C76.5817 39.0534 80.5725 39.8411 84.5112 41.1558C89.3905 42.773 93.8438 45.0841 97.7981 47.922C97.6734 47.8073 97.5227 47.6873 97.398 47.5516C100.183 49.3462 102.901 51.2295 105.681 52.9667C108.752 54.8917 112.041 56.6968 115.445 58.0323C119.846 59.4774 124.299 60.2547 128.721 60.432C129.818 60.3747 130.909 60.2025 132 59.9469Z" fill="white"/>
<path d="M52.258 21.9942C52.3203 29.8925 48.6258 36.9353 42.8527 41.4166C43.7568 38.8447 44.2297 36.0797 44.2089 33.2C44.1985 31.8332 44.0738 30.4925 43.8452 29.183C43.4918 31.3063 42.5929 35.0311 40.0207 38.9229C37.4953 42.7364 34.5023 44.9901 32.7044 46.143C32.5173 46.2839 32.3302 46.43 32.1432 46.576C31.9457 46.7325 31.7483 46.8838 31.5508 47.0403C30.9065 45.8248 30.1218 44.1241 29.4879 42.0061C28.4122 38.396 28.3551 35.5163 28.3499 34.8173C28.3135 29.783 29.8048 25.093 32.3822 21.1908C32.3874 21.1856 32.3874 21.1856 32.3874 21.1804C33.1357 20.33 33.832 19.438 34.4555 18.4885C35.1206 17.4921 35.713 16.4383 36.2222 15.3427C37.1056 13.449 37.7603 11.4249 38.1345 9.30684C38.3891 7.85655 38.519 6.36975 38.5086 4.84121C38.4982 3.18225 38.3215 1.56503 37.989 -3.05176e-05C42.8059 2.1754 46.7863 5.8898 49.3065 10.5276C51.1615 13.9394 52.2268 17.8416 52.258 21.9942Z" fill="white"/>
<path d="M89.7958 115.83C89.6139 119.539 86.465 122.403 82.7601 122.22C79.0603 122.027 76.2127 118.866 76.405 115.157C76.5869 111.448 79.7358 108.584 83.4304 108.766C87.1353 108.954 89.9881 112.115 89.7958 115.83Z" fill="white"/>
<path d="M100.609 120.389C99.466 123.645 97.9435 126.822 96.0053 129.858C89.3125 140.339 78.4315 147.689 66.2462 149.995C52.6216 152.567 36.9496 150.047 25.9076 141.199C19.9059 136.389 15.4578 129.78 14.0964 122.1L14.0185 121.62C13.3326 117.468 13.2442 113.289 13.7794 109.11C14.0341 107.165 14.4653 105.219 14.3302 103.252C14.2731 102.574 14.1536 101.89 13.9405 101.249C13.7327 100.617 13.3949 100.059 13.1455 99.4436C12.6415 98.2542 12.4336 96.9552 12.4128 95.6666C12.3972 94.6441 12.5115 93.6268 12.7142 92.6356C13.7379 87.8309 16.9959 84.4556 20.0046 85.1025C21.9844 85.5303 23.3562 87.5805 23.7875 90.3089C24.0109 91.7383 23.9693 93.3451 23.6264 94.9937C23.5588 95.2962 23.4861 95.5884 23.4029 95.8805C23.0548 97.1378 22.53 98.3116 21.8337 99.4175C21.049 100.654 19.8383 101.504 18.8562 102.563C17.8221 103.68 17.2142 105.073 16.8816 106.549C16.5387 108.067 16.4763 109.632 16.4971 111.182C16.5023 112.397 16.5802 113.613 16.6478 114.818C16.8608 118.376 17.5415 121.923 18.8718 125.236C21.8337 132.659 28.1004 138.643 35.5622 141.491C40.4363 143.13 46.3341 143.876 52.6008 141.924C59.4703 139.791 62.6244 135.174 63.9911 130.583C64.5315 128.762 64.7861 126.957 64.8796 125.304C65.0199 122.742 64.7861 120.572 64.599 119.356C65.2901 120.708 66.1475 121.954 67.1036 123.092C67.1192 123.112 67.1296 123.118 67.1452 123.139C71.6867 128.475 78.8264 131.366 86.2259 130.155C86.5169 130.108 86.8079 130.051 87.0989 129.988C92.9343 128.778 97.7201 125.178 100.609 120.389Z" fill="white"/>
<path d="M89.7958 115.83C89.6139 119.539 86.465 122.403 82.7601 122.22C79.0603 122.027 76.2127 118.866 76.405 115.157C76.5869 111.448 79.7358 108.584 83.4304 108.766C87.1353 108.954 89.9881 112.115 89.7958 115.83Z" fill="white"/>
<path d="M20.15 182.668V200.692C20.15 201.349 19.8954 201.673 19.3914 201.662H16.0969C15.5877 201.673 15.3435 201.24 15.3642 200.369V182.647H11.0617C10.407 182.637 10.0848 182.381 10.0952 181.87V178.568C10.0848 178.056 10.5161 177.816 11.3839 177.848L24.1927 177.863C25.0605 177.842 25.4866 178.093 25.4814 178.599V181.906C25.4918 182.418 25.1696 182.668 24.5149 182.668H20.15Z" fill="white"/>
<path d="M31.452 191.886V200.525C31.452 201.313 31.1766 201.704 30.6206 201.704H27.3573C27.0819 201.704 26.8481 201.527 26.6662 201.177C26.6402 201.094 26.6246 201 26.6246 200.901V186.043C26.6246 183.31 27.7262 181.103 29.9295 179.418C31.4156 178.416 32.9537 177.915 34.549 177.915V177.942C34.6685 177.895 34.7464 177.874 34.7828 177.874C35.7025 177.921 36.4924 178.025 37.1471 178.192C37.9317 178.395 38.6852 178.719 39.4179 179.162C39.9427 179.449 40.613 180.065 41.4236 181.009C41.9017 181.692 42.2654 182.345 42.5045 182.965C42.8994 183.936 43.102 185.203 43.102 186.768V200.864C43.102 201.261 42.8734 201.543 42.4109 201.699H39.0645C38.5917 201.699 38.3319 201.407 38.2747 200.823V191.881H31.452V191.886ZM39.0489 174.514C39.5374 175.041 39.6673 175.479 39.4387 175.834L38.8567 176.836C38.6696 177.196 38.3267 177.284 37.8174 177.102L34.788 175.02L31.7586 177.102C31.2597 177.289 30.9168 177.201 30.7193 176.836L30.1373 175.834C29.9087 175.484 30.0334 175.041 30.527 174.514L34.0813 171.556C34.3567 171.436 34.5905 171.389 34.788 171.415C34.9802 171.389 35.2193 171.436 35.4947 171.556L35.9675 171.947C36.0143 171.984 36.0611 172.015 36.1078 172.046V172.062L39.0489 174.514ZM38.2695 187.457V186.388C38.2695 184.259 37.3965 182.981 35.6558 182.553C35.5103 182.506 35.2297 182.485 34.8244 182.485C33.3278 182.485 32.2886 183.169 31.6962 184.541C31.6027 184.89 31.5195 185.323 31.4468 185.835V187.457H38.2695Z" fill="white"/>
<path d="M56.8202 179.308C57.1891 179.595 57.6204 179.986 58.1089 180.487C58.9091 179.637 59.6937 179.021 60.4628 178.641C61.4605 178.244 62.5309 178.035 63.6793 178.014C64.8276 177.994 65.7526 178.067 66.4541 178.223C67.7376 178.651 68.8444 179.303 69.7901 180.179C70.8709 181.28 71.5984 182.626 71.9777 184.223C72.118 185.464 72.1856 186.278 72.1856 186.669V200.875C72.1856 201.271 71.9569 201.553 71.4945 201.709H68.1585C67.67 201.709 67.3998 201.396 67.3582 200.765V186.393C67.3582 184.932 66.8854 183.816 65.9344 183.044C65.3629 182.673 64.6873 182.491 63.9131 182.491C62.0892 182.491 60.9772 183.398 60.5771 185.214C60.5303 185.548 60.5095 186.001 60.5095 186.575V200.838C60.4524 201.423 60.1874 201.715 59.7093 201.715H56.4461C55.9576 201.595 55.7134 201.349 55.7134 200.979V186.424C55.7134 184.849 55.3756 183.8 54.7053 183.278C54.0298 182.757 53.2192 182.496 52.2682 182.496C50.7821 182.496 49.7429 183.169 49.1401 184.509C48.953 184.937 48.8647 185.542 48.8647 186.33V200.77C48.8647 201.245 48.6413 201.558 48.1996 201.715H44.8376C44.3595 201.715 44.0893 201.402 44.0374 200.77V186.288C44.0374 183.179 45.3 180.785 47.8254 179.11C49.0258 178.416 50.4703 178.046 52.1695 177.999C53.8687 177.952 55.412 178.38 56.8202 179.308Z" fill="white"/>
<path d="M85.0099 191.886V200.525C85.0099 201.313 84.7345 201.704 84.1785 201.704H80.9152C80.6398 201.704 80.406 201.527 80.2241 201.177C80.1981 201.094 80.1826 201 80.1826 200.901V186.043C80.1826 183.31 81.2842 181.103 83.4874 179.418C84.9735 178.416 86.5116 177.915 88.1069 177.915V177.942C88.2264 177.895 88.3043 177.874 88.3407 177.874C89.2605 177.921 90.0503 178.025 90.705 178.192C91.4897 178.395 92.2431 178.719 92.9758 179.162C93.5006 179.449 94.1709 180.065 94.9816 181.009C95.4596 181.692 95.8234 182.345 96.0624 182.965C96.4573 183.936 96.6548 185.203 96.6548 186.768V200.864C96.6548 201.261 96.4261 201.542 95.9637 201.699H92.6173C92.1444 201.699 91.8846 201.407 91.8274 200.823V191.881H85.0099V191.886ZM91.8326 187.457V186.388C91.8326 184.259 90.9596 182.981 89.2189 182.553C89.0734 182.506 88.7928 182.485 88.3875 182.485C86.891 182.485 85.8517 183.169 85.2593 184.541C85.1658 184.89 85.0827 185.323 85.0099 185.835V187.457H91.8326Z" fill="white"/>
<path d="M105.883 177.874C106.803 177.921 107.593 178.025 108.248 178.192C109.032 178.395 109.786 178.719 110.518 179.162C111.043 179.449 111.714 180.065 112.524 181.009C113.002 181.692 113.366 182.345 113.605 182.965C114 183.936 114.197 185.203 114.197 186.768V200.864C114.197 201.261 113.969 201.543 113.506 201.699H110.16C109.687 201.699 109.427 201.407 109.37 200.823V186.377C109.37 184.249 108.497 182.971 106.756 182.543C106.611 182.496 106.33 182.475 105.925 182.475C104.428 182.475 103.389 183.158 102.797 184.53C102.703 184.88 102.62 185.313 102.547 185.824V200.515C102.547 201.303 102.272 201.694 101.716 201.694H98.4526C98.1772 201.694 97.9434 201.516 97.7615 201.167C97.7356 201.083 97.72 200.99 97.72 200.89V186.033C97.72 183.299 98.8216 181.093 101.025 179.407C102.511 178.406 104.049 177.905 105.644 177.905V177.931C105.769 177.9 105.847 177.874 105.883 177.874Z" fill="white"/>
<path d="M14.2264 211.434C14.4031 211.434 14.5538 211.491 14.6733 211.606C14.7928 211.721 14.8552 211.867 14.8552 212.044C14.8552 212.216 14.7928 212.357 14.6733 212.472C14.5538 212.587 14.4031 212.644 14.2264 212.644H10.8852C10.7085 212.644 10.5579 212.581 10.4383 212.461C10.3188 212.341 10.2565 212.19 10.2565 212.013V206.05C10.2565 205.873 10.3188 205.721 10.4435 205.601C10.5682 205.481 10.7241 205.419 10.9164 205.419C11.0827 205.419 11.2282 205.481 11.3529 205.601C11.4776 205.721 11.5451 205.873 11.5451 206.05V211.611L11.3217 211.434H14.2264Z" fill="white"/>
<path d="M20.015 207.119C20.1917 207.119 20.3423 207.182 20.4567 207.302C20.571 207.422 20.6333 207.573 20.6333 207.751V210.369C20.6333 211.1 20.4307 211.679 20.0254 212.101C19.6201 212.529 19.0381 212.743 18.2794 212.743C17.5208 212.743 16.9388 212.529 16.5387 212.101C16.1386 211.674 15.9359 211.095 15.9359 210.369V207.751C15.9359 207.573 15.9931 207.422 16.1126 207.302C16.2269 207.182 16.3776 207.119 16.5543 207.119C16.7309 207.119 16.8816 207.182 16.996 207.302C17.1103 207.422 17.1726 207.573 17.1726 207.751V210.369C17.1726 210.787 17.2662 211.1 17.448 211.303C17.6351 211.507 17.9105 211.606 18.2794 211.606C18.6588 211.606 18.9394 211.507 19.1212 211.303C19.3083 211.1 19.3966 210.787 19.3966 210.369V207.751C19.3966 207.573 19.4538 207.422 19.5733 207.302C19.6876 207.177 19.8331 207.119 20.015 207.119ZM18.3262 214.293C18.0976 214.293 17.9365 214.256 17.8429 214.178C17.7494 214.105 17.6974 213.969 17.6974 213.776V213.578C17.6974 213.38 17.7494 213.244 17.8585 213.171C17.9625 213.098 18.1183 213.061 18.3262 213.061C18.5808 213.061 18.7523 213.098 18.851 213.171C18.9446 213.244 18.9965 213.38 18.9965 213.578V213.776C18.9965 213.974 18.9446 214.11 18.8406 214.183C18.7367 214.256 18.5652 214.293 18.3262 214.293ZM19.8903 208.163V207.13C20.1553 207.13 20.3683 207.078 20.5294 206.973C20.6853 206.869 20.7684 206.707 20.7684 206.488C20.7684 206.363 20.81 206.243 20.9035 206.123C20.9919 206.003 21.1218 205.94 21.2933 205.94C21.4855 205.94 21.6154 206.003 21.6882 206.133C21.7609 206.259 21.7973 206.379 21.7973 206.488C21.7973 206.785 21.7298 207.057 21.5998 207.312C21.4699 207.568 21.2673 207.771 20.9867 207.928C20.7061 208.084 20.3423 208.163 19.8903 208.163Z" fill="white"/>
<path d="M26.4687 207.015C26.6454 207.015 26.7961 207.072 26.9104 207.192C27.0247 207.307 27.0871 207.458 27.0871 207.646V212.013C27.0871 212.19 27.0299 212.341 26.9104 212.461C26.7961 212.581 26.6454 212.644 26.4687 212.644C26.292 212.644 26.1413 212.581 26.027 212.461C25.9127 212.341 25.8503 212.19 25.8503 212.013V211.507L26.079 211.601C26.079 211.689 26.0322 211.799 25.9335 211.924C25.8348 212.049 25.7048 212.174 25.5438 212.3C25.3775 212.425 25.1852 212.529 24.9618 212.613C24.7383 212.701 24.4993 212.743 24.2395 212.743C23.7666 212.743 23.3353 212.623 22.956 212.378C22.5715 212.133 22.2701 211.799 22.0467 211.366C21.8232 210.933 21.7141 210.443 21.7141 209.884C21.7141 209.321 21.8232 208.825 22.0467 208.392C22.2701 207.959 22.5715 207.625 22.9456 207.38C23.325 207.135 23.7407 207.015 24.1979 207.015C24.4941 207.015 24.7643 207.062 25.0085 207.151C25.2528 207.239 25.471 207.354 25.6529 207.49C25.8347 207.625 25.975 207.766 26.0738 207.907C26.1725 208.048 26.2245 208.168 26.2245 208.262L25.8555 208.398V207.646C25.8555 207.469 25.9127 207.318 26.0322 207.198C26.1413 207.078 26.292 207.015 26.4687 207.015ZM24.3902 211.606C24.6916 211.606 24.9566 211.533 25.18 211.382C25.4087 211.23 25.5801 211.022 25.71 210.761C25.8348 210.5 25.9023 210.208 25.9023 209.884C25.9023 209.556 25.8399 209.258 25.71 208.997C25.5801 208.737 25.4087 208.528 25.18 208.377C24.9566 208.225 24.6916 208.152 24.3902 208.152C24.094 208.152 23.8342 208.231 23.6107 208.377C23.3821 208.528 23.2054 208.737 23.0807 208.997C22.956 209.258 22.8885 209.556 22.8885 209.884C22.8885 210.208 22.9508 210.5 23.0807 210.761C23.2106 211.022 23.3821 211.23 23.6107 211.382C23.8394 211.533 24.0992 211.606 24.3902 211.606Z" fill="white"/>
<path d="M33.7488 207.015C34.1385 207.015 34.4815 207.057 34.7725 207.14C35.0635 207.224 35.2921 207.339 35.4532 207.485C35.6143 207.631 35.6922 207.808 35.6922 208.017C35.6922 208.152 35.6506 208.283 35.5675 208.403C35.4844 208.523 35.3648 208.585 35.209 208.585C35.0998 208.585 35.0063 208.57 34.9387 208.538C34.866 208.507 34.8036 208.471 34.7465 208.418C34.6893 208.371 34.627 208.324 34.549 208.283C34.4815 208.241 34.3776 208.21 34.2373 208.184C34.097 208.158 33.993 208.147 33.9255 208.147C33.5773 208.147 33.2811 208.225 33.0369 208.371C32.7927 208.523 32.6056 208.726 32.4757 208.987C32.3458 209.243 32.2783 209.545 32.2783 209.879C32.2783 210.208 32.3458 210.505 32.4809 210.761C32.616 211.022 32.7979 211.225 33.0369 211.376C33.2759 211.528 33.5462 211.601 33.8527 211.601C34.0242 211.601 34.1697 211.59 34.2944 211.569C34.4191 211.549 34.5179 211.517 34.601 211.475C34.6945 211.418 34.7829 211.361 34.8608 211.298C34.9336 211.235 35.0479 211.204 35.1986 211.204C35.3752 211.204 35.5155 211.262 35.6091 211.376C35.7026 211.491 35.7546 211.627 35.7546 211.794C35.7546 211.966 35.661 212.122 35.4688 212.263C35.2765 212.404 35.0271 212.519 34.7153 212.602C34.4035 212.691 34.0658 212.733 33.702 212.733C33.1616 212.733 32.6888 212.608 32.2939 212.357C31.8989 212.107 31.5924 211.762 31.3741 211.329C31.1559 210.896 31.0519 210.411 31.0519 209.874C31.0519 209.31 31.1663 208.815 31.3949 208.382C31.6235 207.954 31.9405 207.615 32.351 207.37C32.7511 207.135 33.2188 207.015 33.7488 207.015Z" fill="white"/>
<path d="M39.5323 207.015C40.0259 207.015 40.4001 207.125 40.6599 207.333C40.9197 207.547 41.0912 207.829 41.1899 208.184C41.2834 208.538 41.3354 208.93 41.3354 209.363V212.002C41.3354 212.18 41.2782 212.331 41.1587 212.451C41.0444 212.571 40.8937 212.634 40.717 212.634C40.5404 212.634 40.3897 212.571 40.2753 212.451C40.161 212.331 40.0987 212.18 40.0987 212.002V209.363C40.0987 209.138 40.0727 208.93 40.0155 208.747C39.9584 208.564 39.8596 208.418 39.7193 208.309C39.5738 208.199 39.3712 208.142 39.101 208.142C38.8412 208.142 38.6177 208.199 38.4307 208.309C38.2436 208.418 38.1085 208.564 38.015 208.747C37.9214 208.93 37.8747 209.133 37.8747 209.363V212.002C37.8747 212.18 37.8175 212.331 37.698 212.451C37.5837 212.571 37.433 212.634 37.2563 212.634C37.0796 212.634 36.9289 212.571 36.8146 212.451C36.7003 212.331 36.6379 212.18 36.6379 212.002V205.622C36.6379 205.445 36.6951 205.294 36.8146 205.174C36.9289 205.054 37.0796 204.991 37.2563 204.991C37.433 204.991 37.5837 205.054 37.698 205.174C37.8123 205.294 37.8747 205.445 37.8747 205.622V208.184L37.7188 208.152C37.7811 208.038 37.8643 207.912 37.9734 207.777C38.0825 207.641 38.2176 207.516 38.3735 207.401C38.5294 207.286 38.7061 207.187 38.8983 207.119C39.0906 207.052 39.3088 207.015 39.5323 207.015Z" fill="white"/>
<path d="M48.0074 209.884C48.0074 210.448 47.8827 210.949 47.6333 211.376C47.3838 211.809 47.0461 212.143 46.6252 212.383C46.2043 212.623 45.7314 212.743 45.2118 212.743C44.6922 212.743 44.2193 212.623 43.7984 212.383C43.3775 212.143 43.0398 211.809 42.7903 211.376C42.5409 210.949 42.4162 210.448 42.4162 209.884C42.4162 209.321 42.5409 208.825 42.7903 208.392C43.0398 207.959 43.3775 207.625 43.7984 207.38C44.2193 207.135 44.6922 207.015 45.2118 207.015C45.7314 207.015 46.2043 207.135 46.6252 207.38C47.0461 207.625 47.3838 207.959 47.6333 208.392C47.8827 208.825 48.0074 209.321 48.0074 209.884ZM46.7707 209.884C46.7707 209.535 46.7031 209.227 46.5576 208.971C46.4173 208.716 46.2303 208.512 45.9912 208.366C45.7522 208.22 45.4924 208.147 45.2066 208.147C44.9208 208.147 44.6558 208.22 44.422 208.366C44.1881 208.512 43.9959 208.711 43.8556 208.971C43.7153 209.232 43.6425 209.535 43.6425 209.884C43.6425 210.229 43.7101 210.531 43.8556 210.787C43.9959 211.042 44.1829 211.246 44.422 211.392C44.661 211.538 44.9208 211.611 45.2066 211.611C45.4924 211.611 45.7574 211.538 45.9912 211.392C46.2303 211.246 46.4173 211.048 46.5576 210.787C46.7031 210.531 46.7707 210.229 46.7707 209.884ZM45.191 214.293C44.9624 214.293 44.8013 214.256 44.7078 214.178C44.609 214.105 44.5623 213.969 44.5623 213.776V213.578C44.5623 213.38 44.6142 213.244 44.7233 213.171C44.8273 213.098 44.9832 213.061 45.191 213.061C45.4456 213.061 45.6171 213.098 45.7158 213.171C45.8146 213.244 45.8613 213.38 45.8613 213.578V213.776C45.8613 213.974 45.8094 214.11 45.7054 214.183C45.6015 214.256 45.43 214.293 45.191 214.293Z" fill="white"/>
<path d="M52.0242 207.015C52.5334 207.015 52.9179 207.125 53.1829 207.333C53.4479 207.547 53.6298 207.829 53.7285 208.184C53.8273 208.538 53.8792 208.93 53.8792 209.363V212.002C53.8792 212.18 53.8221 212.331 53.7026 212.451C53.5882 212.571 53.4376 212.634 53.2609 212.634C53.0842 212.634 52.9335 212.571 52.8192 212.451C52.7049 212.331 52.6425 212.18 52.6425 212.002V209.363C52.6425 209.138 52.6113 208.93 52.5542 208.747C52.497 208.564 52.3931 208.418 52.2424 208.309C52.0917 208.199 51.8735 208.142 51.5929 208.142C51.3175 208.142 51.0888 208.199 50.9018 208.309C50.7147 208.418 50.5692 208.564 50.4705 208.747C50.3717 208.93 50.3198 209.133 50.3198 209.363V212.002C50.3198 212.18 50.2626 212.331 50.1431 212.451C50.0288 212.571 49.8781 212.634 49.7014 212.634C49.5248 212.634 49.3741 212.571 49.2597 212.451C49.1454 212.331 49.0831 212.18 49.0831 212.002V207.74C49.0831 207.563 49.1402 207.412 49.2597 207.292C49.3741 207.172 49.5248 207.109 49.7014 207.109C49.8781 207.109 50.0288 207.172 50.1431 207.292C50.2574 207.412 50.3198 207.563 50.3198 207.74V208.184L50.1639 208.152C50.2263 208.038 50.3146 207.912 50.4289 207.777C50.5432 207.641 50.6835 207.516 50.8394 207.401C50.9953 207.286 51.1772 207.187 51.3746 207.119C51.5773 207.052 51.7903 207.015 52.0242 207.015Z" fill="white"/>
<path d="M58.3376 207.119C58.4675 207.119 58.5871 207.151 58.6962 207.218C58.8053 207.286 58.8884 207.38 58.9404 207.511L60.4525 210.98L60.2239 211.084L61.7672 207.521C61.8815 207.245 62.0634 207.114 62.3128 207.13C62.4842 207.13 62.6245 207.182 62.7285 207.292C62.8324 207.401 62.8896 207.531 62.8896 207.688C62.8896 207.735 62.8792 207.787 62.8636 207.844C62.848 207.902 62.8272 207.954 62.8064 208.001L60.8838 212.253C60.7747 212.498 60.598 212.634 60.359 212.644C60.2291 212.665 60.1044 212.639 59.9849 212.571C59.8653 212.503 59.7718 212.394 59.7146 212.253L57.8024 208.001C57.7868 207.964 57.7712 207.923 57.7557 207.865C57.7401 207.808 57.7297 207.745 57.7297 207.667C57.7297 207.542 57.7868 207.422 57.896 207.302C58.0051 207.177 58.1506 207.119 58.3376 207.119Z" fill="white"/>
<path d="M64.4432 206.759C64.4068 206.759 64.3705 206.754 64.3289 206.744C64.2873 206.733 64.2458 206.718 64.2042 206.697L63.1753 206.149C63.0506 206.081 62.9571 205.998 62.8947 205.904C62.8272 205.81 62.796 205.706 62.796 205.606C62.796 205.45 62.8583 205.325 62.9831 205.236C63.1078 205.147 63.2273 205.1 63.3416 205.1C63.4351 205.1 63.5287 205.121 63.6118 205.168C63.6949 205.215 63.7729 205.267 63.8456 205.33L64.729 206.112C64.8225 206.201 64.8745 206.295 64.8745 206.389C64.8745 206.499 64.8329 206.587 64.755 206.655C64.677 206.723 64.5731 206.759 64.4432 206.759ZM65.0304 212.013C65.0304 212.19 64.9732 212.341 64.8537 212.461C64.7394 212.581 64.5887 212.644 64.412 212.644C64.2354 212.644 64.0847 212.581 63.9704 212.461C63.856 212.341 63.7937 212.19 63.7937 212.013V207.751C63.7937 207.573 63.8508 207.422 63.9704 207.302C64.0847 207.182 64.2354 207.119 64.412 207.119C64.5887 207.119 64.7394 207.182 64.8537 207.302C64.968 207.422 65.0304 207.573 65.0304 207.751V212.013Z" fill="white"/>
<path d="M68.8548 211.783C68.7873 211.689 68.7561 211.564 68.7613 211.413C68.7665 211.262 68.8548 211.131 69.0263 211.022C69.1354 210.954 69.2549 210.922 69.3745 210.933C69.4992 210.943 69.6187 211.006 69.733 211.126C69.9305 211.324 70.1383 211.481 70.3618 211.59C70.58 211.7 70.8554 211.757 71.1828 211.757C71.2867 211.752 71.401 211.736 71.5205 211.71C71.6452 211.684 71.7544 211.632 71.8427 211.543C71.931 211.455 71.983 211.324 71.983 211.147C71.983 210.995 71.931 210.876 71.8271 210.787C71.7232 210.698 71.5881 210.62 71.4218 210.557C71.2555 210.495 71.0685 210.437 70.8606 210.38C70.6476 210.317 70.4293 210.249 70.2059 210.171C69.9824 210.098 69.7798 209.999 69.5927 209.879C69.4056 209.759 69.2549 209.597 69.1406 209.399C69.0263 209.201 68.964 208.951 68.964 208.648C68.964 208.304 69.0575 208.011 69.2498 207.772C69.442 207.532 69.6914 207.344 69.9928 207.213C70.2994 207.083 70.6164 207.015 70.9541 207.015C71.1672 207.015 71.3906 207.041 71.6245 207.093C71.8583 207.145 72.0817 207.229 72.2948 207.344C72.5078 207.459 72.6845 207.605 72.83 207.792C72.9028 207.897 72.9495 208.017 72.9651 208.163C72.9807 208.309 72.9131 208.439 72.7676 208.554C72.6637 208.638 72.5442 208.674 72.4091 208.664C72.274 208.653 72.1597 208.606 72.0713 208.523C71.957 208.371 71.8011 208.251 71.6037 208.163C71.4062 208.074 71.1828 208.027 70.9282 208.027C70.8242 208.027 70.7151 208.038 70.5956 208.064C70.4761 208.09 70.3722 208.137 70.2838 208.22C70.1955 208.298 70.1487 208.424 70.1487 208.596C70.1487 208.752 70.2007 208.877 70.3046 208.971C70.4085 209.065 70.5436 209.138 70.7203 209.201C70.897 209.258 71.084 209.316 71.2815 209.373C71.4894 209.43 71.6972 209.493 71.9103 209.571C72.1233 209.65 72.3156 209.749 72.4974 209.869C72.6793 209.989 72.8196 210.15 72.9287 210.349C73.0379 210.547 73.095 210.792 73.095 211.095C73.095 211.444 72.9911 211.747 72.7884 211.992C72.5806 212.237 72.326 212.425 72.0194 212.555C71.7128 212.686 71.3958 212.748 71.0737 212.748C70.6683 212.748 70.263 212.675 69.8629 212.534C69.4576 212.394 69.1198 212.143 68.8548 211.783Z" fill="white"/>
<path d="M78.2082 207.119C78.3848 207.119 78.5355 207.182 78.6498 207.302C78.7642 207.422 78.8265 207.573 78.8265 207.751V210.369C78.8265 211.1 78.6239 211.679 78.2185 212.101C77.8132 212.529 77.2313 212.743 76.4726 212.743C75.7139 212.743 75.132 212.529 74.7319 212.101C74.3317 211.674 74.1291 211.095 74.1291 210.369V207.751C74.1291 207.573 74.1862 207.422 74.3058 207.302C74.4201 207.182 74.5708 207.119 74.7474 207.119C74.9241 207.119 75.0748 207.182 75.1891 207.302C75.3034 207.422 75.3658 207.573 75.3658 207.751V210.369C75.3658 210.787 75.4593 211.1 75.6412 211.303C75.8283 211.507 76.1037 211.606 76.4726 211.606C76.8467 211.606 77.1325 211.507 77.3144 211.303C77.5015 211.1 77.5898 210.787 77.5898 210.369V207.751C77.5898 207.573 77.647 207.422 77.7665 207.302C77.8808 207.177 78.0263 207.119 78.2082 207.119ZM76.5921 206.77C76.535 206.77 76.4674 206.739 76.3791 206.681C76.2907 206.624 76.2544 206.54 76.2596 206.431C76.2596 206.368 76.2803 206.306 76.3219 206.233L76.9195 205.179C76.9818 205.069 77.0598 204.97 77.1585 204.892C77.2572 204.814 77.3664 204.767 77.4859 204.767C77.6781 204.767 77.8184 204.819 77.9068 204.918C77.9951 205.017 78.0367 205.142 78.0315 205.283C78.0263 205.351 78.0055 205.424 77.9743 205.502C77.9431 205.575 77.8964 205.653 77.834 205.726L77.0546 206.592C76.987 206.671 76.9091 206.718 76.8311 206.739C76.748 206.759 76.6701 206.77 76.5921 206.77ZM78.0834 208.163V207.13C78.3485 207.13 78.5615 207.078 78.7226 206.973C78.8785 206.869 78.9616 206.707 78.9616 206.488C78.9616 206.363 79.0084 206.243 79.0967 206.123C79.1851 206.003 79.315 205.94 79.4864 205.94C79.6787 205.94 79.8086 206.003 79.8814 206.133C79.9541 206.259 79.9905 206.379 79.9905 206.488C79.9905 206.786 79.9229 207.057 79.793 207.312C79.6631 207.568 79.4605 207.771 79.1799 207.928C78.8993 208.085 78.5355 208.163 78.0834 208.163Z" fill="white"/>
<path d="M82.6042 207.015C82.9939 207.015 83.3369 207.057 83.6279 207.14C83.9189 207.224 84.1475 207.339 84.3086 207.485C84.4697 207.631 84.5476 207.808 84.5476 208.017C84.5476 208.152 84.506 208.283 84.4229 208.403C84.3398 208.523 84.2202 208.585 84.0644 208.585C83.9552 208.585 83.8617 208.57 83.7941 208.538C83.7214 208.507 83.659 208.471 83.6019 208.418C83.5447 208.371 83.4824 208.324 83.4044 208.283C83.3369 208.241 83.233 208.21 83.0927 208.184C82.9524 208.158 82.8484 208.147 82.7809 208.147C82.4327 208.147 82.1365 208.225 81.8923 208.371C81.6481 208.523 81.461 208.726 81.3311 208.987C81.2012 209.243 81.1337 209.545 81.1337 209.879C81.1337 210.208 81.2012 210.505 81.3363 210.761C81.4714 211.022 81.6533 211.225 81.8923 211.376C82.1314 211.528 82.4016 211.601 82.7081 211.601C82.8796 211.601 83.0251 211.59 83.1498 211.569C83.2745 211.549 83.3733 211.517 83.4564 211.475C83.5499 211.418 83.6383 211.361 83.711 211.298C83.7838 211.235 83.8981 211.204 84.0488 211.204C84.2254 211.204 84.3657 211.262 84.4593 211.376C84.5528 211.491 84.6048 211.627 84.6048 211.794C84.6048 211.966 84.5112 212.122 84.319 212.263C84.1267 212.404 83.8773 212.519 83.5655 212.602C83.2537 212.691 82.916 212.733 82.5522 212.733C82.0118 212.733 81.539 212.608 81.1441 212.357C80.744 212.107 80.4374 211.762 80.2243 211.329C80.0061 210.896 79.9022 210.411 79.9022 209.874C79.9022 209.31 80.0165 208.815 80.2451 208.382C80.4737 207.954 80.7907 207.615 81.2012 207.37C81.6117 207.135 82.0794 207.015 82.6042 207.015Z" fill="white"/>
<path d="M89.1047 212.639C88.9281 212.639 88.7774 212.576 88.6631 212.456C88.5488 212.336 88.4864 212.185 88.4864 212.008V205.627C88.4864 205.45 88.5436 205.299 88.6631 205.179C88.7774 205.059 88.9281 204.996 89.1047 204.996C89.2814 204.996 89.4321 205.059 89.5464 205.179C89.6608 205.299 89.7231 205.45 89.7231 205.627V212.008C89.7231 212.185 89.666 212.336 89.5464 212.456C89.4269 212.581 89.2814 212.639 89.1047 212.639ZM92.3732 207.119C92.5291 207.119 92.6694 207.187 92.7837 207.318C92.898 207.448 92.9604 207.573 92.9604 207.698C92.9604 207.865 92.8773 208.017 92.711 208.163L89.6192 211.022L89.5672 209.597L91.9211 207.318C92.051 207.182 92.2017 207.119 92.3732 207.119ZM92.5239 212.628C92.3472 212.628 92.1965 212.561 92.0718 212.42L90.17 210.396L91.1053 209.53L92.9552 211.554C93.0851 211.689 93.1527 211.846 93.1527 212.018C93.1527 212.195 93.0851 212.341 92.9396 212.456C92.8045 212.571 92.6642 212.628 92.5239 212.628Z" fill="white"/>
<path d="M97.0707 207.015C97.5643 207.015 97.9384 207.125 98.1982 207.333C98.4581 207.547 98.6295 207.829 98.7283 208.184C98.8218 208.538 98.8738 208.93 98.8738 209.363V212.002C98.8738 212.18 98.8166 212.331 98.6971 212.451C98.5828 212.571 98.4321 212.634 98.2554 212.634C98.0787 212.634 97.928 212.571 97.8137 212.451C97.6994 212.331 97.637 212.18 97.637 212.002V209.363C97.637 209.138 97.6111 208.93 97.5539 208.747C97.4968 208.564 97.398 208.418 97.2577 208.309C97.1122 208.199 96.9096 208.142 96.6394 208.142C96.3795 208.142 96.1561 208.199 95.969 208.309C95.782 208.418 95.6469 208.564 95.5533 208.747C95.4598 208.93 95.413 209.133 95.413 209.363V212.002C95.413 212.18 95.3559 212.331 95.2364 212.451C95.122 212.571 94.9714 212.634 94.7947 212.634C94.618 212.634 94.4673 212.571 94.353 212.451C94.2387 212.331 94.1763 212.18 94.1763 212.002V205.622C94.1763 205.445 94.2335 205.294 94.353 205.174C94.4725 205.054 94.618 204.991 94.7947 204.991C94.9714 204.991 95.122 205.054 95.2364 205.174C95.3507 205.294 95.413 205.445 95.413 205.622V208.184L95.2572 208.152C95.3195 208.038 95.4026 207.912 95.5118 207.777C95.6209 207.641 95.756 207.516 95.9119 207.401C96.0678 207.286 96.2444 207.187 96.4367 207.119C96.6342 207.052 96.842 207.015 97.0707 207.015Z" fill="white"/>
<path d="M105.541 209.884C105.541 210.448 105.416 210.949 105.167 211.376C104.917 211.809 104.579 212.143 104.158 212.383C103.738 212.623 103.265 212.743 102.745 212.743C102.225 212.743 101.753 212.623 101.332 212.383C100.911 212.143 100.573 211.809 100.324 211.376C100.074 210.949 99.9495 210.448 99.9495 209.884C99.9495 209.321 100.074 208.825 100.324 208.392C100.573 207.959 100.911 207.625 101.332 207.38C101.753 207.135 102.225 207.015 102.745 207.015C103.265 207.015 103.738 207.135 104.158 207.38C104.579 207.625 104.917 207.959 105.167 208.392C105.416 208.825 105.541 209.321 105.541 209.884ZM104.309 209.884C104.309 209.535 104.236 209.227 104.096 208.971C103.956 208.716 103.769 208.512 103.53 208.366C103.291 208.22 103.031 208.147 102.745 208.147C102.459 208.147 102.194 208.22 101.96 208.366C101.721 208.512 101.534 208.711 101.394 208.971C101.254 209.232 101.181 209.535 101.181 209.884C101.181 210.229 101.254 210.531 101.394 210.787C101.534 211.042 101.721 211.246 101.96 211.392C102.199 211.538 102.459 211.611 102.745 211.611C103.031 211.611 103.296 211.538 103.53 211.392C103.769 211.246 103.956 211.048 104.096 210.787C104.236 210.531 104.309 210.229 104.309 209.884ZM101.747 204.97C101.856 204.881 101.976 204.808 102.096 204.751C102.215 204.694 102.371 204.667 102.558 204.667C102.844 204.667 103.067 204.714 103.223 204.814C103.379 204.907 103.483 205.027 103.535 205.168C103.592 205.309 103.618 205.44 103.618 205.565C103.618 205.674 103.602 205.773 103.571 205.857C103.54 205.94 103.488 206.029 103.421 206.118C103.353 206.201 103.296 206.274 103.244 206.337C103.197 206.399 103.171 206.457 103.171 206.514C103.171 206.598 103.135 206.666 103.067 206.723C103 206.78 102.917 206.806 102.823 206.806C102.735 206.806 102.652 206.78 102.579 206.728C102.506 206.676 102.47 206.608 102.47 206.514C102.47 206.446 102.485 206.379 102.516 206.311C102.548 206.243 102.584 206.18 102.636 206.107C102.693 206.034 102.745 205.951 102.797 205.867C102.849 205.784 102.875 205.716 102.875 205.659C102.875 205.57 102.839 205.502 102.771 205.45C102.703 205.403 102.62 205.377 102.527 205.377C102.438 205.377 102.361 205.398 102.288 205.434C102.22 205.471 102.153 205.513 102.09 205.554C102.044 205.591 101.981 205.607 101.908 205.612C101.836 205.617 101.758 205.57 101.669 205.481C101.581 205.387 101.555 205.288 101.586 205.189C101.628 205.106 101.68 205.027 101.747 204.97Z" fill="white"/>
<path d="M109.209 212.743C108.627 212.743 108.123 212.623 107.692 212.378C107.266 212.133 106.933 211.804 106.705 211.382C106.476 210.964 106.362 210.489 106.362 209.957C106.362 209.337 106.486 208.81 106.736 208.371C106.985 207.933 107.313 207.599 107.718 207.365C108.123 207.13 108.549 207.015 109.001 207.015C109.349 207.015 109.682 207.088 109.994 207.234C110.306 207.38 110.581 207.578 110.82 207.829C111.059 208.079 111.251 208.371 111.392 208.7C111.532 209.029 111.605 209.384 111.605 209.754C111.599 209.921 111.532 210.051 111.407 210.156C111.282 210.26 111.142 210.312 110.976 210.312H107.047L106.741 209.279H110.513L110.285 209.488V209.201C110.269 209.003 110.202 208.825 110.072 208.664C109.942 208.507 109.786 208.382 109.599 208.288C109.412 208.194 109.209 208.147 108.996 208.147C108.788 208.147 108.596 208.173 108.419 208.231C108.243 208.288 108.087 208.377 107.957 208.507C107.827 208.638 107.723 208.815 107.65 209.034C107.572 209.253 107.536 209.535 107.536 209.869C107.536 210.239 107.614 210.557 107.77 210.813C107.926 211.074 108.123 211.267 108.367 211.402C108.612 211.538 108.871 211.606 109.142 211.606C109.396 211.606 109.599 211.585 109.75 211.543C109.9 211.502 110.02 211.455 110.113 211.392C110.207 211.335 110.29 211.282 110.363 211.241C110.487 211.178 110.602 211.147 110.711 211.147C110.862 211.147 110.986 211.199 111.085 211.303C111.184 211.408 111.236 211.528 111.236 211.663C111.236 211.851 111.142 212.018 110.95 212.169C110.773 212.321 110.519 212.451 110.202 212.566C109.885 212.686 109.552 212.743 109.209 212.743Z" fill="white"/>
</svg>
